#N canvas 0 0 1052 803 10;
#X obj 68 -243 vradio 20 1 0 4 selector empty empty 0 -8 0 10 -262144
-1 -1 3;
#X text 93 -242 No octave;
#X text 93 -222 Up octave;
#X text 93 -202 Down octave;
#X text 93 -182 Both octaves;
#X obj 578 159 sel 0 1 2 3;
#X obj 578 136 r selector;
#X msg 578 210 0;
#X msg 622 210 0;
#X msg 589 210 1;
#X msg 632 210 1;
#X obj 474 273 spigot;
#X obj 543 273 spigot;
#X obj 543 -133 notein;
#X floatatom 543 -56 5 0 0 0 - - -;
#X floatatom 559 -112 5 0 0 0 - - -;
#X floatatom 407 298 5 0 0 0 - - -;
#X obj 559 -92 s vel;
#X floatatom 474 159 5 0 0 0 - - -;
#X floatatom 543 159 5 0 0 0 - - -;
#X floatatom 474 298 5 0 0 0 - - -;
#X floatatom 543 299 5 0 0 0 - - -;
#X obj 717 207 +;
#X obj 68 -77 nbx 5 34 -1e+037 1e+037 0 0 transpose empty empty 0 -8
0 10 -262144 -1 -1 0 256;
#X floatatom 717 230 5 0 0 0 - - -;
#X obj 543 6 +;
#X obj 558 -15 r transpose;
#X floatatom 407 99 5 0 0 0 - - -;
#X obj 68 -37 nbx 5 34 -1e+037 1e+037 0 0 trans1 empty empty 0 -8 0
10 -262144 -1 -1 0 256;
#X obj 717 157 spigot;
#X obj 750 133 tgl 15 0 empty transSwitch1 empty 17 7 0 10 -262144
-1 -1 1 1;
#X obj 28 -37 tgl 34 0 transSwitch1 empty empty 17 7 0 10 -262144 -1
-1 1 1;
#X text 139 -69 Transpose Signal;
#X floatatom 717 309 5 0 0 0 - - -;
#X obj 474 136 - 12;
#X obj 543 136 + 12;
#X obj 407 449 noteout 1;
#X obj 474 450 noteout 1;
#X obj 543 451 noteout 1;
#X obj 407 385 makenote;
#X obj 474 385 makenote;
#X obj 543 385 makenote;
#X obj 588 328 r vel;
#X obj 654 -40 bng 15 250 50 0 empty empty empty 17 7 0 10 -262144
-1 -1;
#X obj 68 -137 nbx 5 34 -1e+037 1e+037 0 0 dur noteBang empty 0 -8
0 10 -262144 -1 -1 0 256;
#X text 139 -129 Note Duration;
#X obj 654 -18 s noteBang;
#X obj 68 3 nbx 5 34 -1e+037 1e+037 0 0 trans2 empty empty 0 -8 0 10
-262144 -1 -1 10 256;
#X obj 28 3 tgl 34 0 transSwitch2 empty empty 17 7 0 10 -262144 -1
-1 1 1;
#X obj 68 43 nbx 5 34 -1e+037 1e+037 0 0 trans3 empty empty 0 -8 0
10 -262144 -1 -1 0 256;
#X obj 28 43 tgl 34 0 transSwitch3 empty empty 17 7 0 10 -262144 -1
-1 0 1;
#X text 140 -29 Additional Transposition 1;
#X text 140 11 Additional Transposition 2;
#X text 140 52 Additional Transposition 3;
#X obj 787 207 +;
#X floatatom 787 230 5 0 0 0 - - -;
#X obj 787 157 spigot;
#X obj 820 133 tgl 15 0 empty transSwitch2 empty 17 7 0 10 -262144
-1 -1 1 1;
#X obj 732 186 r trans1;
#X obj 802 186 r trans2;
#X obj 857 207 +;
#X floatatom 857 230 5 0 0 0 - - -;
#X obj 857 157 spigot;
#X obj 890 133 tgl 15 0 empty transSwitch3 empty 17 7 0 10 -262144
-1 -1 0 1;
#X obj 872 185 r trans3;
#X obj 588 348 r dur;
#X obj 717 449 noteout 1;
#X obj 717 395 makenote;
#X obj 787 449 noteout 1;
#X obj 787 395 makenote;
#X floatatom 787 309 5 0 0 0 - - -;
#X floatatom 857 309 5 0 0 0 - - -;
#X obj 857 449 noteout 1;
#X obj 857 395 makenote;
#X obj 902 338 r vel;
#X obj 902 358 r dur;
#X floatatom 717 99 5 0 0 0 - - -;
#X floatatom 787 99 5 0 0 0 - - -;
#X floatatom 857 99 5 0 0 0 - - -;
#X text 43 301 Guide to semi-tones:;
#X text 66 332 1;
#X text 66 341 2;
#X text 66 351 3;
#X text 66 361 4;
#X text 66 371 5;
#X text 66 381 6;
#X text 66 390 7;
#X text 66 399 8;
#X text 66 409 9;
#X text 62 419 10;
#X text 62 429 11;
#X text 62 439 12;
#X text 96 332 Half step;
#X text 96 341 Whole Step;
#X text 96 351 Minor third;
#X text 96 361 Major Third;
#X text 96 371 Perfect Fourth;
#X text 95 381 Tritone;
#X text 96 390 Perfect Fifth;
#X text 96 399 Minor Sixth;
#X text 96 408 Major Sixth;
#X text 96 439 Perfect Octave;
#X text 96 429 Major Seventh;
#X text 96 419 Minor Seventh;
#X connect 5 0 7 0;
#X connect 5 0 8 0;
#X connect 5 1 10 0;
#X connect 5 1 7 0;
#X connect 5 2 9 0;
#X connect 5 2 8 0;
#X connect 5 3 9 0;
#X connect 5 3 10 0;
#X connect 6 0 5 0;
#X connect 7 0 11 1;
#X connect 8 0 12 1;
#X connect 9 0 11 1;
#X connect 10 0 12 1;
#X connect 11 0 20 0;
#X connect 12 0 21 0;
#X connect 13 0 14 0;
#X connect 13 1 15 0;
#X connect 14 0 25 0;
#X connect 14 0 43 0;
#X connect 15 0 17 0;
#X connect 16 0 39 0;
#X connect 18 0 11 0;
#X connect 19 0 12 0;
#X connect 20 0 40 0;
#X connect 21 0 41 0;
#X connect 22 0 24 0;
#X connect 24 0 33 0;
#X connect 25 0 27 0;
#X connect 25 0 76 0;
#X connect 25 0 77 0;
#X connect 25 0 78 0;
#X connect 26 0 25 1;
#X connect 27 0 16 0;
#X connect 27 0 34 0;
#X connect 27 0 35 0;
#X connect 29 0 22 0;
#X connect 30 0 29 1;
#X connect 33 0 67 0;
#X connect 34 0 18 0;
#X connect 35 0 19 0;
#X connect 39 0 36 0;
#X connect 39 1 36 1;
#X connect 40 0 37 0;
#X connect 40 1 37 1;
#X connect 41 0 38 0;
#X connect 41 1 38 1;
#X connect 42 0 41 1;
#X connect 42 0 40 1;
#X connect 42 0 39 1;
#X connect 43 0 46 0;
#X connect 54 0 55 0;
#X connect 55 0 70 0;
#X connect 56 0 54 0;
#X connect 57 0 56 1;
#X connect 58 0 22 1;
#X connect 59 0 54 1;
#X connect 60 0 61 0;
#X connect 61 0 71 0;
#X connect 62 0 60 0;
#X connect 63 0 62 1;
#X connect 64 0 60 1;
#X connect 65 0 39 2;
#X connect 65 0 40 2;
#X connect 65 0 41 2;
#X connect 67 0 66 0;
#X connect 67 1 66 1;
#X connect 69 0 68 0;
#X connect 69 1 68 1;
#X connect 70 0 69 0;
#X connect 71 0 73 0;
#X connect 73 0 72 0;
#X connect 73 1 72 1;
#X connect 74 0 67 1;
#X connect 74 0 69 1;
#X connect 74 0 73 1;
#X connect 75 0 67 2;
#X connect 75 0 69 2;
#X connect 75 0 73 2;
#X connect 76 0 29 0;
#X connect 77 0 56 0;
#X connect 78 0 62 0;
